<svg xmlns="http://www.w3.org/2000/svg" width="20" height="20" viewBox="0 0 20 20" id="wheel">
  <g id="Page-1" fill="none" fill-rule="evenodd" stroke="none" stroke-width="1">
    <g id="Dribbble-Light-Preview" fill="#000" transform="translate(-340 -2399)">
      <g id="icons" transform="translate(56 160)">
        <path id="wheel-[#1295]" d="M300.232 2253.984l-4.349-4.357c.065-.198.082-.407.082-.627 0-.713.035-1.334-.965-1.689v-6.232c4 .522 6.969 3.871 6.969 7.921a7.945 7.945 0 0 1-1.737 4.984M294 2257c-4.071 0-7.435-3.06-7.93-7h6.208a1.985 1.985 0 0 0 2.117.96l4.417 4.416A7.947 7.947 0 0 1 294 2257m-1-15.94v6.184c0 .175-.536.436-.722.756h-6.208c.456-3.632 2.93-6.512 6.93-6.94m1-2.06c-5.522 0-10 4.477-10 10s4.478 10 10 10c5.523 0 10-4.477 10-10s-4.477-10-10-10"></path>
      </g>
    </g>
  </g>
</svg>
